# xmcd
# 
# Track frame offsets:
#     150
#     19845
#     38794
#     53135
#     74545
#     96180
#     121189
#     135118
# 
# Disc length: 2140
# 
# Revision: 0
# Processed by: cddbd v1.5.2PL0 Copyright (c) Steve Scherf et al.
# Submitted via: BonkEnc v1.0.8
# 
DISCID=63085a08
DTITLE=COIL - ギャルソン
DYEAR=2008
DGENRE=Rock
TTITLE0=Good Day Afternoon
TTITLE1=ザルで水くむ恋心
TTITLE2=イコール・ゼロ
TTITLE3=ハミングバード
TTITLE4=やわらかな旋律
TTITLE5=夏はこれからだ！
TTITLE6=ハイブリッド・愛
TTITLE7=あなたがここにいてほしい
EXTD=
EXTT0=
EXTT1=
EXTT2=
EXTT3=
EXTT4=
EXTT5=
EXTT6=
EXTT7=
PLAYORDER=
